<?xml version="1.0" encoding="UTF-8" standalone="no"?>
<!DOCTYPE svg PUBLIC "-//W3C//DTD SVG 1.1//EN" "http://www.w3.org/Graphics/SVG/1.1/DTD/svg11.dtd">
<svg xmlns="http://www.w3.org/2000/svg" version="1.1" viewBox="0.00 0.00 1773.00 1182.00">
<path fill="#0089d6" d="
  M 483.50 395.68
  L 321.08 744.03
  A 0.34 0.34 0.0 0 1 320.77 744.23
  L 205.12 744.24
  A 0.34 0.34 0.0 0 1 204.82 743.73
  L 333.40 520.72
  A 0.34 0.34 0.0 0 1 333.48 520.63
  L 482.98 395.27
  A 0.34 0.34 0.0 0 1 483.50 395.68
  Z"
/>
<path fill="#0089d6" d="
  M 559.57 745.19
  A 0.27 0.26 -24.8 0 0 559.73 744.76
  L 437.47 599.15
  Q 436.87 598.42 437.19 597.53
  L 500.65 422.77
  A 0.33 0.33 0.0 0 1 501.25 422.72
  L 711.48 786.74
  Q 711.89 787.46 711.06 787.46
  Q 517.89 787.44 325.25 787.37
  Q 324.54 787.37 321.91 787.13
  Q 321.87 787.13 321.83 787.14
  Q 321.76 787.16 321.82 787.19
  Q 321.87 787.22 321.92 787.21
  Q 440.82 766.27 559.57 745.19
  Z"
/>
<path fill="#0089d6" d="
  M 811.58 681.27
  L 789.04 744.57
  A 0.50 0.50 0.0 0 1 788.57 744.90
  L 760.01 744.80
  A 0.50 0.50 0.0 0 1 759.55 744.12
  L 846.16 516.65
  A 0.50 0.50 0.0 0 1 846.62 516.33
  L 873.79 516.34
  A 0.50 0.50 0.0 0 1 874.25 516.66
  L 961.87 744.13
  A 0.50 0.50 0.0 0 1 961.40 744.81
  L 932.86 744.93
  A 0.50 0.50 0.0 0 1 932.39 744.60
  L 908.60 681.26
  A 0.50 0.50 0.0 0 0 908.13 680.94
  L 812.05 680.94
  A 0.50 0.50 0.0 0 0 811.58 681.27
  Z
  M 859.48 545.21
  C 858.53 550.92 857.30 555.92 855.28 561.45
  Q 837.84 609.31 820.73 656.07
  A 0.41 0.40 10.2 0 0 821.11 656.61
  L 899.20 656.66
  A 0.39 0.38 79.9 0 0 899.56 656.14
  Q 882.01 609.13 864.47 560.65
  Q 861.85 553.41 860.42 545.20
  Q 859.94 542.46 859.48 545.21
  Z"
/>
<path fill="#0089d6" d="
  M 1452.89 670.58
  Q 1452.68 689.20 1462.32 704.85
  Q 1468.04 714.13 1477.40 719.48
  Q 1488.34 725.73 1499.80 726.39
  C 1521.16 727.61 1539.62 721.75 1556.36 709.25
  Q 1556.97 708.79 1556.97 709.55
  L 1557.04 732.54
  Q 1557.04 733.17 1556.52 733.50
  Q 1536.62 746.04 1515.83 748.12
  Q 1508.91 748.82 1499.88 748.86
  Q 1490.65 748.91 1483.97 747.58
  C 1454.15 741.63 1435.03 720.03 1428.82 690.89
  Q 1424.72 671.70 1426.71 651.80
  Q 1428.33 635.62 1435.83 619.82
  Q 1446.90 596.52 1468.84 584.96
  C 1479.63 579.29 1491.02 577.16 1503.51 577.14
  C 1530.30 577.10 1552.72 592.57 1562.30 617.72
  C 1568.45 633.87 1568.92 651.66 1568.18 669.34
  Q 1568.16 669.79 1567.72 669.79
  L 1453.50 669.97
  Q 1452.90 669.98 1452.89 670.58
  Z
  M 1541.48 647.20
  C 1541.83 634.37 1537.10 618.44 1527.54 609.69
  C 1517.66 600.66 1505.46 598.69 1492.57 600.70
  C 1470.51 604.14 1456.15 626.25 1453.24 647.20
  Q 1453.17 647.73 1453.70 647.73
  L 1540.93 647.74
  Q 1541.47 647.74 1541.48 647.20
  Z"
/>
<path fill="#0089d6" d="
  M 1350.98 613.65
  Q 1351.07 616.15 1351.85 613.77
  C 1357.56 596.20 1371.96 579.38 1391.76 578.64
  C 1397.43 578.42 1404.22 578.54 1409.30 580.56
  Q 1409.79 580.76 1409.79 581.29
  L 1409.79 607.44
  A 0.29 0.29 0.0 0 1 1409.38 607.70
  C 1406.41 606.31 1403.38 604.66 1400.20 603.95
  C 1383.76 600.28 1368.86 606.30 1360.85 620.82
  Q 1354.59 632.16 1352.23 643.85
  Q 1350.92 650.32 1350.90 662.33
  Q 1350.81 703.98 1350.71 744.38
  Q 1350.71 744.93 1350.16 744.93
  Q 1337.68 745.07 1325.30 744.73
  A 0.80 0.80 0.0 0 1 1324.52 743.93
  L 1324.45 582.37
  Q 1324.45 581.68 1325.13 581.68
  L 1350.25 581.74
  A 0.58 0.58 0.0 0 1 1350.83 582.33
  Q 1350.46 598.62 1350.98 613.65
  Z"
/>
<path fill="#0089d6" d="
  M 1067.15 604.30
  Q 1066.06 604.10 1065.08 604.09
  Q 1024.41 604.01 981.05 603.82
  Q 980.27 603.81 980.26 603.03
  L 980.10 582.19
  Q 980.10 581.73 980.56 581.73
  L 1105.74 581.72
  Q 1106.26 581.72 1106.26 582.24
  L 1106.26 588.49
  Q 1106.25 589.11 1105.89 589.61
  L 1010.21 721.98
  Q 1009.77 722.59 1010.52 722.59
  L 1104.65 722.73
  Q 1105.08 722.73 1105.08 723.15
  L 1105.06 744.33
  Q 1105.06 744.97 1104.42 744.97
  L 971.80 744.94
  Q 971.18 744.94 971.17 744.32
  Q 971.13 741.58 971.07 738.38
  Q 971.04 736.67 972.37 734.85
  Q 1019.95 669.60 1067.24 604.52
  A 0.14 0.14 0.0 0 0 1067.15 604.30
  Z"
/>
<path fill="#0089d6" d="
  M 1245.20 720.22
  Q 1245.15 718.93 1244.52 720.05
  C 1231.12 743.59 1209.43 751.55 1183.59 748.17
  C 1153.72 744.27 1139.64 722.30 1137.03 694.20
  Q 1136.28 686.14 1136.26 675.87
  Q 1136.16 628.77 1136.01 582.02
  Q 1136.01 581.73 1136.30 581.73
  L 1161.75 581.73
  A 0.57 0.57 0.0 0 1 1162.32 582.29
  Q 1162.53 626.29 1162.53 674.23
  C 1162.53 688.76 1164.04 705.38 1174.68 716.52
  C 1180.39 722.50 1188.79 726.12 1197.07 726.45
  C 1203.98 726.73 1210.50 726.78 1216.97 724.14
  C 1231.35 718.28 1239.82 706.00 1243.75 691.27
  Q 1245.05 686.42 1245.05 680.79
  Q 1245.07 630.59 1245.19 582.63
  A 0.34 0.33 0.0 0 1 1245.53 582.30
  L 1271.28 582.29
  Q 1272.01 582.29 1272.01 583.03
  L 1272.03 744.47
  Q 1272.03 744.96 1271.53 744.96
  L 1246.20 744.94
  Q 1245.38 744.94 1245.40 744.12
  Q 1245.69 732.10 1245.20 720.22
  Z"
/>
</svg>
