<?xml version="1.0" encoding="UTF-8" standalone="no"?>
<!DOCTYPE svg PUBLIC "-//W3C//DTD SVG 1.1//EN" "http://www.w3.org/Graphics/SVG/1.1/DTD/svg11.dtd">
<svg xmlns="http://www.w3.org/2000/svg" version="1.1" viewBox="0.00 0.00 666.00 375.00">
<path fill="#ffffff" d="
  M 235.49 98.34
  Q 236.65 97.61 237.76 96.62
  C 239.91 94.70 243.23 94.49 246.06 94.75
  C 251.06 95.22 253.39 99.86 253.57 104.54
  Q 253.93 113.79 253.66 123.15
  Q 253.63 124.37 252.41 124.31
  L 247.79 124.06
  Q 246.87 124.01 246.84 123.08
  Q 246.62 114.30 246.80 105.74
  C 246.89 101.69 244.11 99.20 239.94 100.32
  Q 234.32 101.82 234.22 108.28
  Q 234.10 115.47 234.20 122.69
  Q 234.22 124.38 232.54 124.31
  L 229.33 124.18
  Q 227.56 124.11 227.50 122.35
  Q 227.19 113.30 227.48 104.50
  C 227.70 97.88 226.93 91.09 227.50 84.22
  Q 227.60 82.99 228.83 82.97
  L 232.75 82.91
  Q 234.11 82.89 234.10 84.25
  L 234.07 97.56
  A 0.93 0.92 -16.1 0 0 235.49 98.34
  Z"
/>
<path fill="#ffffff" d="
  M 312.25 121.38
  C 308.00 125.18 302.74 125.98 297.76 122.90
  C 292.43 119.61 291.73 112.04 292.51 106.18
  Q 293.20 100.98 296.37 97.96
  C 300.66 93.87 306.81 93.94 311.67 97.26
  Q 313.88 98.77 313.75 96.10
  Q 313.44 89.51 313.91 83.91
  Q 313.99 82.86 315.04 82.87
  L 319.24 82.91
  Q 320.32 82.92 320.32 83.99
  L 320.29 122.59
  A 1.41 1.41 0.0 0 1 318.90 124.00
  L 314.94 124.05
  Q 314.28 124.06 314.00 123.46
  L 313.10 121.56
  Q 312.79 120.90 312.25 121.38
  Z
  M 313.5744 106.6435
  A 6.59 6.59 0.0 0 0 306.8591 100.1812
  L 305.7593 100.2023
  A 6.59 6.59 0.0 0 0 299.2970 106.9176
  L 299.4056 112.5765
  A 6.59 6.59 0.0 0 0 306.1209 119.0388
  L 307.2207 119.0177
  A 6.59 6.59 0.0 0 0 313.6830 112.3024
  L 313.5744 106.6435
  Z"
/>
<path fill="#ffffff" d="
  M 206.13 118.99
  C 213.25 119.76 215.70 110.23 208.75 108.47
  C 200.70 106.44 191.45 105.62 191.95 94.57
  C 192.21 88.58 198.14 85.47 203.58 85.05
  Q 211.48 84.43 217.33 88.19
  Q 218.76 89.10 217.81 90.52
  L 216.00 93.23
  Q 214.98 94.76 213.61 93.52
  Q 209.78 90.04 202.69 91.16
  C 197.72 91.95 197.34 98.65 202.31 99.91
  Q 206.37 100.95 210.73 101.91
  C 215.77 103.03 219.80 106.19 220.11 111.60
  Q 220.76 122.88 209.45 124.55
  C 203.86 125.37 193.95 123.99 191.11 118.36
  Q 190.83 117.80 191.22 117.32
  L 194.33 113.49
  Q 194.75 112.97 195.17 113.48
  Q 199.13 118.23 206.13 118.99
  Z"
/>
<path fill="#ffffff" d="
  M 430.08 117.37
  C 432.71 115.94 433.74 112.03 433.77 109.31
  Q 433.89 98.42 433.93 86.63
  A 1.30 1.30 0.0 0 1 435.27 85.33
  L 439.16 85.43
  Q 440.85 85.48 440.82 87.17
  Q 440.62 98.39 440.41 111.50
  C 440.21 124.21 426.93 127.06 417.31 123.55
  C 411.53 121.45 409.20 115.96 409.16 110.24
  Q 409.07 99.06 409.08 87.18
  A 1.89 1.88 0.9 0 1 411.03 85.30
  L 414.18 85.41
  Q 416.15 85.47 416.12 87.44
  Q 415.90 100.23 416.07 110.65
  C 416.19 118.36 424.26 120.52 430.08 117.37
  Z"
/>
<rect fill="#ffffff" x="451.23" y="85.32" width="7.26" height="39.08" rx="1.71"/>
<path fill="#ffffff" d="
  M 277.57 120.86
  C 276.34 121.88 275.21 123.29 273.73 123.89
  C 268.56 125.99 261.86 124.64 260.77 118.44
  C 259.20 109.54 266.80 107.84 273.43 106.85
  Q 275.02 106.62 276.35 105.74
  C 279.26 103.82 277.66 100.43 274.78 99.91
  Q 270.37 99.12 265.44 102.81
  Q 263.94 103.92 262.96 102.34
  Q 262.11 100.96 262.03 100.84
  Q 261.16 99.43 262.44 98.41
  Q 268.57 93.57 277.48 94.97
  C 282.98 95.83 284.46 100.48 284.31 105.47
  Q 284.14 111.45 284.19 117.60
  A 1.56 1.56 0.0 0 0 286.21 119.08
  Q 286.87 118.87 287.48 119.09
  Q 287.96 119.27 287.98 119.77
  L 288.16 122.96
  A 1.08 1.07 -9.6 0 1 287.39 124.04
  Q 281.70 125.72 278.43 120.98
  Q 278.06 120.45 277.57 120.86
  Z
  M 277.83 110.15
  A 0.51 0.51 0.0 0 0 277.52 109.75
  Q 276.89 109.48 276.29 109.76
  Q 273.91 110.85 271.67 111.26
  C 268.85 111.77 266.71 113.37 267.10 116.59
  C 267.32 118.45 268.89 119.76 270.68 119.98
  C 277.12 120.76 278.51 115.19 277.83 110.15
  Z"
/>
<path fill="#ffffff" d="
  M 368.38 98.68
  C 369.71 97.44 371.01 96.00 372.76 95.38
  C 377.39 93.74 384.09 94.48 385.68 99.97
  Q 386.63 103.25 386.60 106.90
  Q 386.55 114.50 386.41 122.15
  Q 386.37 123.83 384.70 124.02
  L 381.16 124.40
  Q 379.78 124.56 379.76 123.16
  Q 379.67 115.33 380.03 107.20
  C 380.22 102.99 378.72 99.56 373.76 100.32
  Q 367.11 101.35 367.14 108.76
  Q 367.17 115.72 367.07 122.77
  Q 367.05 124.05 365.77 124.06
  L 361.77 124.11
  A 1.09 1.09 0.0 0 1 360.67 123.02
  L 360.53 96.54
  Q 360.52 95.10 361.96 95.11
  L 365.46 95.14
  Q 367.12 95.16 367.07 96.82
  Q 367.04 97.73 367.44 98.51
  Q 367.80 99.22 368.38 98.68
  Z"
/>
<path fill="#ffffff" d="
  M 340.87 118.97
  Q 346.28 119.69 349.06 115.13
  Q 349.70 114.09 350.78 114.65
  L 353.07 115.82
  Q 354.79 116.70 353.97 118.45
  C 349.29 128.53 332.26 126.16 329.08 115.65
  C 327.68 111.00 327.74 103.83 331.12 99.77
  C 336.18 93.68 346.97 92.53 352.74 98.69
  Q 354.36 100.41 352.55 101.93
  L 350.97 103.25
  Q 349.43 104.55 348.17 102.98
  C 344.43 98.32 336.89 99.60 335.53 105.79
  C 334.51 110.48 334.83 118.17 340.87 118.97
  Z"
/>
<circle fill="#ffffff" cx="327.07" cy="145.92" r="3.26"/>
<path fill="#ffffff" d="
  M 363.72 155.58
  Q 364.67 155.18 365.38 154.42
  C 367.20 152.50 370.35 152.56 372.81 152.86
  C 377.12 153.37 378.39 157.15 378.32 160.95
  Q 378.18 168.53 378.36 175.90
  Q 378.39 177.02 377.26 177.02
  L 374.22 177.01
  Q 372.99 177.01 372.98 175.77
  Q 372.97 168.71 372.94 161.50
  C 372.93 159.34 372.27 157.51 370.00 157.11
  C 364.93 156.20 362.42 159.63 362.34 164.24
  Q 362.25 170.01 362.28 176.03
  Q 362.29 176.97 361.35 176.97
  L 357.92 177.00
  A 1.08 1.08 0.0 0 1 356.83 175.92
  L 356.94 144.27
  Q 356.95 142.99 358.23 142.98
  L 360.83 142.96
  Q 362.20 142.95 362.21 144.32
  L 362.29 154.64
  A 1.03 1.03 0.0 0 0 363.72 155.58
  Z"
/>
<path fill="#ffffff" d="
  M 337.60 157.16
  L 335.62 156.86
  A 0.73 0.72 4.5 0 1 334.99 156.13
  L 335.02 153.76
  Q 335.03 153.05 335.74 153.03
  L 337.06 152.99
  A 1.73 1.72 1.9 0 0 338.72 151.44
  L 338.96 148.97
  Q 339.06 148.01 340.02 147.95
  L 342.75 147.78
  Q 343.78 147.71 343.85 148.75
  L 344.05 151.68
  A 1.39 1.39 0.0 0 0 345.43 152.98
  L 350.02 153.02
  A 1.00 1.00 0.0 0 1 351.02 154.02
  L 351.02 155.98
  A 1.01 1.01 0.0 0 1 350.01 156.99
  L 345.48 157.01
  A 1.43 1.43 0.0 0 0 344.05 158.39
  Q 343.85 163.70 343.99 169.34
  C 344.05 171.74 346.11 173.41 348.48 172.82
  Q 349.12 172.66 349.74 172.48
  Q 350.35 172.31 350.67 172.86
  Q 351.46 174.20 351.66 175.56
  A 0.75 0.74 -18.5 0 1 351.27 176.33
  C 345.92 179.11 338.65 177.06 338.70 170.01
  Q 338.74 165.00 338.69 160.00
  Q 338.68 158.91 338.39 157.86
  Q 338.22 157.25 337.60 157.16
  Z"
/>
<path fill="#ffffff" d="
  M 302.65 161.12
  Q 301.55 160.23 301.14 161.60
  Q 298.93 168.83 297.37 175.89
  A 1.76 1.75 -83.6 0 1 295.66 177.26
  L 292.61 177.25
  Q 291.05 177.24 290.69 175.73
  L 285.61 154.50
  Q 285.25 153.01 286.78 152.97
  L 288.68 152.91
  Q 290.21 152.86 290.53 154.35
  Q 291.84 160.52 293.21 167.40
  C 293.30 167.86 293.56 168.26 293.83 168.62
  Q 294.80 169.94 295.26 168.37
  L 299.37 154.23
  Q 299.62 153.37 300.49 153.14
  Q 301.96 152.77 303.88 153.21
  Q 304.61 153.38 304.82 154.11
  Q 306.57 160.32 308.46 166.29
  Q 308.84 167.50 309.52 168.64
  A 0.60 0.60 0.0 0 0 310.62 168.46
  L 313.61 154.72
  Q 313.95 153.20 315.50 153.09
  L 317.21 152.97
  Q 318.77 152.86 318.42 154.39
  Q 316.14 164.44 313.82 174.24
  Q 313.52 175.48 312.78 176.55
  A 1.01 1.01 0.0 0 1 311.94 177.00
  L 308.03 177.01
  Q 307.31 177.01 307.11 176.31
  Q 305.16 169.64 303.24 162.49
  Q 302.94 161.35 302.65 161.12
  Z"
/>
<rect fill="#ffffff" x="324.34" y="152.99" width="5.44" height="23.96" rx="1.21"/>
<path fill="#000000" d="
  M 151.08 210.85
  A 0.49 0.47 85.1 0 0 150.69 211.33
  Q 150.68 236.42 150.76 262.90
  C 150.76 265.01 150.46 267.23 150.41 269.37
  A 0.96 0.95 0.6 0 1 149.44 270.31
  L 139.32 270.17
  A 1.28 1.27 -1.5 0 1 138.07 268.99
  Q 137.86 265.86 137.84 262.66
  Q 137.67 228.33 138.03 193.99
  A 1.30 1.30 0.0 0 1 139.27 192.70
  Q 145.57 192.35 152.63 192.71
  Q 154.44 192.80 155.79 194.46
  Q 185.06 230.57 212.50 265.13
  Q 214.28 267.37 215.99 269.54
  A 0.59 0.59 0.0 0 1 215.52 270.50
  Q 209.25 270.34 203.00 270.22
  Q 200.71 270.18 199.28 268.40
  Q 180.00 244.31 160.57 219.96
  Q 157.06 215.56 153.18 211.56
  Q 152.28 210.62 151.08 210.85
  Z"
/>
<path fill="#000000" d="
  M 230.70 204.61
  A 1.01 1.00 -17.2 0 0 230.26 205.44
  L 230.38 223.99
  A 1.37 1.36 89.8 0 0 231.74 225.35
  L 273.05 225.40
  A 1.14 1.14 0.0 0 1 274.19 226.48
  Q 274.49 231.55 274.02 236.01
  A 1.22 1.21 3.2 0 1 272.81 237.09
  L 231.88 237.11
  Q 230.18 237.11 230.25 238.80
  Q 230.56 247.04 230.34 255.00
  Q 230.30 256.45 230.68 257.90
  A 1.12 1.12 0.0 0 0 231.76 258.72
  L 284.23 258.73
  A 0.87 0.86 -89.7 0 1 285.09 259.61
  L 284.98 268.88
  A 1.61 1.61 0.0 0 1 283.37 270.47
  L 218.28 270.30
  Q 217.19 270.30 217.42 269.24
  C 218.02 266.38 217.53 263.25 217.53 260.26
  Q 217.53 226.60 217.79 193.57
  A 0.81 0.81 0.0 0 1 218.53 192.77
  Q 221.25 192.59 223.75 192.59
  Q 253.76 192.64 283.99 192.72
  A 1.06 1.05 90.0 0 1 285.04 193.78
  L 284.98 202.82
  A 1.22 1.21 -0.0 0 1 283.77 204.02
  Q 258.03 204.18 232.27 204.13
  Q 231.42 204.13 230.70 204.61
  Z"
/>
<path fill="#000000" d="
  M 342.91 220.04
  A 1.65 1.58 8.8 0 0 343.58 219.57
  Q 354.71 206.30 363.83 194.29
  C 364.82 192.99 366.52 192.46 368.11 192.51
  Q 373.05 192.66 378.23 192.48
  Q 379.37 192.44 380.56 192.81
  A 0.64 0.63 -62.0 0 1 380.86 193.82
  Q 376.70 198.98 372.41 204.11
  Q 361.69 216.93 351.66 230.10
  Q 350.52 231.60 351.67 233.08
  Q 363.70 248.62 378.56 266.29
  Q 379.88 267.85 380.86 269.70
  A 0.51 0.50 -13.2 0 1 380.40 270.44
  L 366.96 270.22
  A 3.77 3.76 69.9 0 1 364.19 268.93
  Q 359.07 262.99 353.85 256.47
  Q 328.30 224.50 303.77 194.01
  A 0.74 0.73 68.8 0 1 304.29 192.82
  Q 310.88 192.37 318.23 192.78
  A 2.11 2.09 72.1 0 1 319.76 193.57
  Q 329.76 206.15 341.12 219.77
  Q 341.71 220.48 342.91 220.04
  Z"
/>
<path fill="#000000" d="
  M 425.00 205.63
  A 1.38 1.37 90.0 0 0 423.63 204.25
  L 398.97 204.19
  A 1.22 1.22 0.0 0 1 397.76 202.97
  L 397.75 194.31
  Q 397.75 192.54 399.52 192.54
  Q 428.69 192.44 457.99 192.55
  Q 461.07 192.56 464.17 192.84
  A 0.95 0.94 3.0 0 1 465.03 193.79
  L 464.99 202.73
  A 1.47 1.47 0.0 0 1 463.52 204.19
  L 439.51 204.23
  A 1.51 1.51 0.0 0 0 438.01 205.74
  L 438.01 269.28
  A 1.06 1.05 89.7 0 1 436.97 270.34
  L 426.74 270.44
  A 1.70 1.70 0.0 0 1 425.02 268.74
  L 425.00 205.63
  Z"
/>
<path fill="#000000" d="
  M 509.01 262.22
  C 510.95 267.02 518.38 266.88 521.51 263.70
  C 524.49 260.66 521.78 257.44 518.59 256.56
  Q 513.92 255.28 509.69 253.94
  C 502.43 251.65 502.34 242.35 508.57 239.09
  C 514.99 235.72 524.94 236.37 527.24 244.62
  Q 527.44 245.36 526.79 245.77
  Q 526.06 246.22 525.03 246.14
  C 522.29 245.93 522.06 243.44 519.91 242.36
  Q 515.95 240.35 512.25 242.31
  Q 508.34 244.38 510.26 248.10
  C 511.70 250.89 517.87 251.47 520.71 252.35
  C 526.36 254.10 529.84 259.33 526.90 264.95
  C 524.22 270.07 517.35 270.60 512.08 269.77
  Q 505.33 268.72 503.34 262.69
  Q 502.77 260.96 504.56 260.65
  Q 505.55 260.49 506.64 260.54
  Q 508.37 260.61 509.01 262.22
  Z"
/>
<path fill="#000000" d="
  M 485.65 265.77
  C 490.33 266.77 491.85 263.34 491.79 259.46
  Q 491.63 248.38 491.83 238.77
  Q 491.86 237.54 493.09 237.56
  L 496.18 237.63
  A 1.05 1.05 0.0 0 1 497.21 238.68
  Q 497.18 251.85 497.18 259.73
  C 497.19 266.33 493.10 270.25 486.75 270.11
  C 482.07 270.01 477.90 268.07 476.62 263.25
  Q 476.19 261.66 477.83 261.58
  L 480.48 261.44
  Q 482.16 261.36 482.66 262.96
  Q 483.39 265.29 485.65 265.77
  Z"
/>
<path fill="#000000" d="
  M 303.33 269.36
  L 328.15 238.76
  A 0.78 0.78 0.0 0 1 329.37 238.78
  L 336.53 248.03
  A 0.78 0.78 0.0 0 1 336.52 249.00
  L 319.47 269.97
  A 0.78 0.78 0.0 0 1 318.88 270.26
  L 303.96 270.63
  A 0.78 0.78 0.0 0 1 303.33 269.36
  Z"
/>
<circle fill="#000000" cx="468.42" cy="266.82" r="3.23"/>
</svg>
