<?xml version="1.0" encoding="UTF-8" standalone="no"?>
<!DOCTYPE svg PUBLIC "-//W3C//DTD SVG 1.1//EN" "http://www.w3.org/Graphics/SVG/1.1/DTD/svg11.dtd">
<svg xmlns="http://www.w3.org/2000/svg" version="1.1" viewBox="0.00 0.00 432.00 117.00">
<path fill="#000000" d="
  M 50.54 0.00
  L 55.05 0.00
  Q 66.42 1.50 74.25 9.55
  Q 74.64 9.95 75.19 9.84
  C 88.92 7.05 102.09 14.52 107.69 27.04
  Q 111.91 36.48 108.84 47.45
  Q 108.72 47.90 109.02 48.25
  C 116.88 57.42 118.60 70.38 113.06 81.05
  Q 106.83 93.05 93.45 96.44
  Q 92.90 96.58 92.69 97.10
  Q 85.76 114.58 66.61 117.00
  L 63.22 117.00
  Q 61.44 116.56 59.65 116.34
  C 53.27 115.54 47.46 112.13 43.13 107.46
  A 0.99 0.99 0.0 0 0 42.23 107.17
  C 33.24 109.01 24.02 106.40 17.02 100.38
  Q 8.79 93.30 7.10 81.47
  Q 6.34 76.13 8.27 69.87
  Q 8.46 69.25 8.04 68.75
  C -6.43 51.33 1.93 26.08 23.65 20.54
  Q 24.24 20.39 24.47 19.82
  Q 31.33 2.22 50.54 0.00
  Z
  M 40.67 30.52
  C 40.67 28.31 40.87 27.56 42.83 26.42
  Q 54.44 19.69 65.98 13.04
  Q 66.57 12.70 66.03 12.30
  C 54.21 3.34 37.40 7.86 31.90 21.62
  Q 30.32 25.56 30.37 30.85
  Q 30.52 44.14 30.42 56.34
  Q 30.42 56.99 30.99 57.31
  L 40.11 62.45
  Q 40.69 62.78 40.69 62.11
  Q 40.67 43.64 40.67 30.52
  Z
  M 61.46 24.39
  Q 53.91 28.89 46.53 32.88
  Q 45.86 33.24 45.86 34.00
  L 45.84 44.70
  A 0.24 0.24 0.0 0 0 46.20 44.91
  L 74.82 28.38
  A 2.94 2.94 0.0 0 1 77.76 28.38
  L 101.60 42.17
  A 0.49 0.48 -68.9 0 0 102.32 41.85
  Q 102.81 39.46 102.48 36.75
  Q 101.28 26.79 93.61 21.13
  C 88.02 17.01 80.65 15.59 74.17 17.73
  Q 70.70 18.88 61.46 24.39
  Z
  M 28.32 61.83
  C 25.94 60.46 22.82 59.40 22.83 56.02
  Q 22.86 42.74 22.83 29.43
  Q 22.83 28.53 22.01 28.90
  C 5.07 36.60 3.59 59.30 19.78 68.62
  Q 31.53 75.38 42.73 81.86
  A 0.95 0.94 -45.3 0 0 43.69 81.85
  L 52.78 76.48
  A 0.38 0.37 -45.3 0 0 52.78 75.83
  Q 40.72 68.95 28.32 61.83
  Z
  M 91.12 44.73
  Q 82.49 39.97 74.46 35.09
  A 0.86 0.86 0.0 0 0 73.59 35.08
  L 64.32 40.54
  A 0.34 0.33 44.5 0 0 64.33 41.12
  L 92.42 57.24
  A 3.67 3.65 -75.2 0 1 94.26 60.42
  L 94.26 87.76
  A 0.43 0.43 0.0 0 0 94.87 88.15
  Q 103.08 84.26 106.53 77.09
  C 110.74 68.34 108.70 57.88 101.41 51.34
  Q 98.75 48.94 91.12 44.73
  Z
  M 58.92 43.95
  A 0.72 0.72 0.0 0 0 58.20 43.95
  L 46.21 50.96
  A 0.72 0.72 0.0 0 0 45.85 51.58
  L 45.85 65.43
  A 0.72 0.72 0.0 0 0 46.21 66.06
  L 58.22 72.91
  A 0.72 0.72 0.0 0 0 58.94 72.91
  L 71.06 65.97
  A 0.72 0.72 0.0 0 0 71.42 65.34
  L 71.42 51.65
  A 0.72 0.72 0.0 0 0 71.06 51.03
  L 58.92 43.95
  Z
  M 77.25 54.63
  Q 76.50 54.21 76.50 55.07
  L 76.50 87.01
  A 4.02 4.02 0.0 0 1 74.49 90.49
  L 51.01 104.07
  A 0.35 0.34 49.4 0 0 50.97 104.64
  C 63.13 114.33 81.61 108.57 85.83 93.54
  Q 87.00 89.39 86.80 81.45
  Q 86.56 71.35 86.79 60.79
  Q 86.81 60.10 86.21 59.76
  L 77.25 54.63
  Z
  M 39.48 88.66
  L 15.30 74.70
  A 0.37 0.37 0.0 0 0 14.75 74.97
  C 12.76 90.40 25.97 102.84 41.28 99.62
  Q 44.91 98.86 49.58 96.13
  Q 60.54 89.75 70.88 83.94
  A 1.10 1.08 75.5 0 0 71.43 82.99
  L 71.45 72.31
  A 0.29 0.29 0.0 0 0 71.02 72.06
  L 42.26 88.66
  A 2.79 2.79 0.0 0 1 39.48 88.66
  Z"
/>
<path fill="#000000" d="
  M 191.69 45.55
  C 196.69 64.57 188.19 86.79 166.14 88.50
  C 151.87 89.60 140.38 81.30 136.19 67.53
  C 132.78 56.30 134.42 42.70 142.34 33.41
  C 150.01 24.41 162.59 21.70 173.74 25.48
  C 182.68 28.50 189.28 36.40 191.69 45.55
  Z
  M 163.8400 79.0700
  A 22.83 18.40 90.0 0 0 182.2400 56.2400
  A 22.83 18.40 90.0 0 0 163.8400 33.4100
  A 22.83 18.40 90.0 0 0 145.4400 56.2400
  A 22.83 18.40 90.0 0 0 163.8400 79.0700
  Z"
/>
<path fill="#000000" d="
  M 390.94 73.21
  L 364.14 73.21
  A 0.34 0.34 0.0 0 0 363.82 73.43
  L 358.56 87.50
  A 0.34 0.34 0.0 0 1 358.24 87.72
  L 347.93 87.76
  A 0.34 0.34 0.0 0 1 347.62 87.30
  L 371.23 25.15
  A 0.34 0.34 0.0 0 1 371.54 24.93
  L 383.78 24.94
  A 0.34 0.34 0.0 0 1 384.09 25.16
  L 407.69 87.29
  A 0.34 0.34 0.0 0 1 407.38 87.75
  L 396.91 87.75
  A 0.34 0.34 0.0 0 1 396.60 87.53
  L 391.25 73.43
  A 0.34 0.34 0.0 0 0 390.94 73.21
  Z
  M 367.68 63.10
  A 0.35 0.35 0.0 0 0 368.01 63.58
  L 387.00 63.54
  A 0.35 0.35 0.0 0 0 387.33 63.07
  L 377.79 37.85
  A 0.35 0.35 0.0 0 0 377.13 37.85
  L 367.68 63.10
  Z"
/>
<rect fill="#000000" x="414.84" y="24.95" width="11.16" height="62.90" rx="0.26"/>
<path fill="#000000" d="
  M 212.27 46.11
  C 217.36 40.81 224.61 39.66 231.41 42.04
  C 244.18 46.50 247.30 62.55 243.63 74.27
  C 241.40 81.41 235.78 87.16 228.24 88.33
  C 222.51 89.22 216.51 88.02 212.52 83.61
  Q 211.50 82.49 211.50 84.01
  L 211.51 102.80
  Q 211.51 103.36 210.95 103.36
  L 201.70 103.35
  Q 201.05 103.35 201.05 102.70
  L 201.05 42.34
  Q 201.05 41.74 201.66 41.74
  L 211.00 41.73
  Q 211.52 41.73 211.52 42.25
  L 211.50 45.80
  Q 211.50 46.92 212.27 46.11
  Z
  M 222.7675 79.7799
  A 15.05 11.99 90.2 0 0 234.8099 64.7719
  A 15.05 11.99 90.2 0 0 222.8725 49.6801
  A 15.05 11.99 90.2 0 0 210.8301 64.6881
  A 15.05 11.99 90.2 0 0 222.7675 79.7799
  Z"
/>
<path fill="#000000" d="
  M 261.40 67.18
  Q 262.20 74.34 266.71 77.64
  C 270.99 80.77 277.27 80.53 281.40 77.18
  Q 283.60 75.39 283.87 73.75
  Q 284.09 72.37 285.41 72.85
  L 292.41 75.39
  Q 293.49 75.78 292.99 76.81
  C 288.49 86.18 278.55 90.16 268.52 88.02
  C 260.68 86.35 254.65 80.50 252.51 72.80
  C 248.76 59.36 254.30 43.84 269.47 41.25
  Q 277.98 39.79 284.23 43.78
  C 291.98 48.72 294.03 57.74 293.62 66.62
  A 0.38 0.37 0.8 0 1 293.24 66.98
  L 261.63 66.93
  A 0.23 0.23 0.0 0 0 261.40 67.18
  Z
  M 262.44 59.38
  L 283.24 59.20
  A 0.03 0.03 0.0 0 0 283.27 59.17
  L 283.27 59.10
  A 10.26 9.68 -0.5 0 0 272.93 49.51
  L 272.59 49.51
  A 10.26 9.68 -0.5 0 0 262.41 59.28
  L 262.41 59.35
  A 0.03 0.03 0.0 0 0 262.44 59.38
  Z"
/>
<path fill="#000000" d="
  M 312.09 45.95
  Q 312.09 46.92 312.74 46.19
  C 318.76 39.44 330.54 38.90 336.47 45.80
  Q 340.18 50.11 340.25 56.81
  Q 340.41 72.41 340.30 87.21
  Q 340.30 87.75 339.76 87.75
  L 330.49 87.75
  Q 329.98 87.75 329.98 87.23
  Q 329.97 73.99 329.88 59.68
  C 329.79 46.04 312.11 48.66 312.12 61.08
  Q 312.14 73.37 312.13 87.16
  Q 312.13 87.75 311.53 87.75
  L 302.24 87.75
  Q 301.74 87.75 301.74 87.24
  L 301.74 42.25
  Q 301.74 41.74 302.25 41.74
  L 311.55 41.73
  Q 312.13 41.73 312.12 42.30
  L 312.09 45.95
  Z"
/>
</svg>
